<?xml version="1.0" encoding="UTF-8"?>
<svg width="54px" height="31px" viewBox="0 0 54 31" version="1.1" xmlns="http://www.w3.org/2000/svg" xmlns:xlink="http://www.w3.org/1999/xlink">
    <!-- Generator: Sketch 43.1 (39012) - http://www.bohemiancoding.com/sketch -->
    <title>Flag_of_the_United_Kingdom</title>
    <desc>Created with Sketch.</desc>
    <defs>
        <path d="M25,12.5 L50,12.5 L50,25 L25,12.5 Z M25,12.5 L25,25 L0,25 L25,12.5 Z M25,12.5 L0,12.5 L0,0 L25,12.5 Z M25,12.5 L25,0 L50,0 L25,12.5 Z" id="path-1"></path>
    </defs>
    <g id="Page-1" stroke="none" stroke-width="1" fill="none" fill-rule="evenodd">
        <g id="Flag_of_the_United_Kingdom" transform="translate(2.000000, 3.000000)">
            <polygon id="Shape" fill="#00247D" fill-rule="nonzero" points="0 0 0 25 50 25 50 0"></polygon>
            <path d="M0,0 L50,25 M50,0 L0,25" id="Shape" stroke="#FFFFFF" stroke-width="6" fill="#000000" fill-rule="nonzero"></path>
            <g id="Clipped">
                <mask id="mask-2" fill="white">
                    <use xlink:href="#path-1"></use>
                </mask>
                <g id="Shape"></g>
                <path d="M0,0 L50,25 M50,0 L0,25" id="Shape" stroke="#CF142B" stroke-width="4" fill="#000000" fill-rule="nonzero" mask="url(#mask-2)"></path>
            </g>
            <path d="M25,0 L25,25 M0,12.5 L50,12.5" id="Shape" stroke="#FFFFFF" stroke-width="10" fill="#000000" fill-rule="nonzero"></path>
            <path d="M25,0 L25,25 M0,12.5 L50,12.5" id="Shape" stroke="#CF142B" stroke-width="6" fill="#000000" fill-rule="nonzero"></path>
        </g>
    </g>
</svg>