<?xml version="1.0" encoding="UTF-8"?>
<svg width="96px" height="100px" viewBox="0 0 96 100" version="1.1" xmlns="http://www.w3.org/2000/svg" xmlns:xlink="http://www.w3.org/1999/xlink">
    <!-- Generator: Sketch 42 (36781) - http://www.bohemiancoding.com/sketch -->
    <title>welder</title>
    <desc>Created with Sketch.</desc>
    <defs></defs>
    <g id="Page-1" stroke="none" stroke-width="1" fill="none" fill-rule="evenodd">
        <g id="Versione-2" transform="translate(-192.000000, -1500.000000)" fill="#FFFFFF">
            <g id="SERVIZI" transform="translate(0.000000, 1300.000000)">
                <g id="Group-1">
                    <g id="welder" transform="translate(192.000000, 200.000000)">
                        <g id="Layer_1">
                            <g id="Group">
                                <path d="M87.7367187,71.2947266 L87.3828125,71.1910156 C82.2130859,69.8054688 80.4675781,68.46875 78.1603516,67.5960937 C70.6103516,64.7152344 68.2238281,62.5789062 67.4853516,61.4376953 C69.0662109,60.0095703 70.5126953,58.2914063 71.7943359,56.2986328 C75.6701172,50.2882812 77.0494141,43.4095703 77.0494141,38.9769531 L77.0494141,18.6521484 C77.0494141,11.6009766 75.9996094,7.36679687 73.5337891,4.49355469 C70.8726562,1.38554687 66.6673828,0 59.8988281,0 L35.8007812,0 C30.4816406,0 26.3128906,1.47246094 23.4076172,4.37617187 C20.2552734,7.52871094 18.6560547,12.3320312 18.6560547,18.6521484 L18.6560547,38.9767578 C18.6560547,45.9957031 20.5328125,52.5691406 23.9476562,57.4886719 C25.1134766,59.1671875 26.4378906,60.6257812 27.9058594,61.8587891 C26.8835937,63.0642578 24.2558594,65.0357422 17.5390625,67.5960937 C15.2382812,68.46875 13.4896484,69.8054688 8.32011719,71.1910156 L7.96621094,71.2947266 C3.26015625,72.8511719 0.092578125,77.2152344 0.092578125,82.1404297 L0.092578125,99.9994141 L47.8521484,99.9994141 L95.6101562,99.9994141 L95.6101562,82.1404297 C95.6101562,77.2152344 92.4425781,72.8511719 87.7367187,71.2947266 Z M68.6816406,67.7851562 L68.6816406,79.1648437 L64.5191406,79.1648437 L64.5191406,64.4222656 C65.5443359,65.6673828 67.0214844,66.7873047 68.6816406,67.7851562 Z M27.3689453,55.1113281 C24.4789062,50.9457031 22.821875,45.0650391 22.821875,38.9767578 L22.821875,18.6521484 C22.821875,8.76914063 26.9478516,4.16699219 35.8009766,4.16699219 L59.8988281,4.16699219 C65.3431641,4.16699219 68.571875,5.10390625 70.3724609,7.20507813 C72.1058594,9.23144531 72.8810547,12.7607422 72.8810547,18.6521484 L72.8810547,38.9767578 C72.8810547,42.6419922 71.6787109,48.7849609 68.2912109,54.0402344 C65.8070312,57.8976562 61.2841797,62.4996094 53.8748047,62.4996094 L41.825,62.4996094 C35.6357422,62.4996094 30.7716797,60.0154297 27.3689453,55.1113281 Z M47.8244141,70.8310547 C41.1533203,70.8310547 36.9601562,68.7101563 35.3519531,67.7060547 L35.3519531,65.7957031 C37.3722656,66.3691406 39.5359375,66.6683594 41.8248047,66.6683594 L53.8746094,66.6683594 C56.1509766,66.6683594 58.3177734,66.3205078 60.3501953,65.6460938 L60.3501953,67.7 C58.7267578,68.7070313 54.4970703,70.8310547 47.8244141,70.8310547 Z M60.3501953,72.4238281 L60.3501953,79.1648438 L35.3521484,79.1648438 L35.3521484,72.4361328 C37.9980469,73.6691406 42.1667969,74.9996094 47.8246094,74.9996094 C53.5023437,74.9996094 57.6953125,73.6568359 60.3501953,72.4238281 Z M27.0179687,67.7851562 C28.6841797,66.7904297 30.1613281,65.6673828 31.1835937,64.4222656 L31.1835937,79.1648437 L27.0179687,79.1648437 L27.0179687,67.7851562 Z M18.65625,95.8304687 L4.25800781,95.8304687 L4.25800781,82.1404297 C4.25800781,79.0337891 6.24472656,76.2814453 9.20488281,75.2744141 L9.43984375,75.2072266 C13.3339844,74.1574219 15.4853516,73.1259766 17.215625,72.2988281 C17.8839844,71.9783203 18.4607422,71.7037109 19.0222656,71.4900391 C20.2185547,71.0322266 21.5306641,70.5074219 22.8521484,69.9183594 L22.8521484,79.1648437 L18.65625,79.1648437 L18.65625,95.8304687 Z M72.8257812,95.8304687 L22.8248047,95.8304687 L22.8248047,83.3304687 L72.8259766,83.3304687 L72.8259766,95.8304687 L72.8257812,95.8304687 Z M91.4416016,95.8304687 L91.4416016,95.8304687 L76.9886719,95.8304687 L76.9886719,79.1648437 L72.8503906,79.1648437 L72.8503906,69.9183594 C74.1748047,70.5074219 75.4871094,71.0322266 76.6833984,71.4900391 C77.2388672,71.7037109 77.8185547,71.9783203 78.4900391,72.2988281 C80.2173828,73.1257812 82.3658203,74.1574219 86.2658203,75.2072266 L86.4978516,75.2744141 C89.4578125,76.2814453 91.4416016,79.0337891 91.4416016,82.1404297 L91.4416016,95.8304687 L91.4416016,95.8304687 Z" id="Shape"></path>
                                <path d="M31.0554688,16.665625 L64.6472656,16.665625 C65.8007813,16.665625 66.7285156,15.7333984 66.7285156,14.5828125 C66.7285156,13.4322266 65.8007812,12.5 64.6470703,12.5 L31.0552734,12.5 C29.9046875,12.5 28.9708984,13.4322266 28.9708984,14.5828125 C28.9708984,15.7333984 29.9048828,16.665625 31.0554688,16.665625 Z" id="Shape"></path>
                                <path d="M66.6001953,20.8328125 L29.1021484,20.8328125 L29.1021484,41.6654297 L66.6001953,41.6654297 L66.6001953,20.8328125 Z M37.8914062,37.4998047 L33.2679687,37.4998047 L33.2679687,24.9998047 L41.0164062,24.9998047 L37.8914062,37.4998047 Z M46.24375,37.4998047 L42.1849609,37.4998047 L45.3099609,24.9998047 L49.3535156,24.9998047 L46.24375,37.4998047 Z M62.4316406,37.4996094 L62.4316406,37.4996094 L50.5375,37.4996094 L53.6488281,24.9996094 L62.4316406,24.9996094 L62.4316406,37.4996094 Z" id="Shape"></path>
                            </g>
                        </g>
                    </g>
                </g>
            </g>
        </g>
    </g>
</svg>